#N canvas 916 453 450 300 10;
#X obj 235 194 dac~;
#X obj 241 139 osc~;
#X msg 241 101 440;
#X obj 240 56 loadbang;
#X msg 151 109 \; pd dsp 1;
#X connect 1 0 0 0;
#X connect 1 0 0 1;
#X connect 2 0 1 0;
#X connect 3 0 2 0;
#X connect 3 0 4 0;