#N canvas 1530 938 979 478 10;
#X msg 34 100 disconnect;
#N canvas 538 938 1223 441 oscsend 1;
#X obj 385 89 inlet commands;
#X obj 282 201 netsend -u -b;
#X obj 229 111 list prepend send;
#X obj 230 134 list trim;
#X obj 283 232 outlet;
#X obj 549 73 r connect;
#X obj 227 82 r data;
#X obj 549 121 s data;
#X obj 730 124 s data;
#X text 29 19 This manages turning sends into OSC netsends;
#X obj 548 97 oscformat -f i connect;
#X obj 730 75 r lcd;
#X obj 730 99 oscformat lcd;
#X connect 0 0 1 0;
#X connect 1 0 4 0;
#X connect 2 0 3 0;
#X connect 3 0 1 0;
#X connect 5 0 10 0;
#X connect 6 0 2 0;
#X connect 10 0 7 0;
#X connect 11 0 12 0;
#X connect 12 0 8 0;
#X restore 35 130 pd oscsend;
#X obj 35 158 s connect;
#X msg 123 99 connect localhost 5005;
#X obj 70 47 tgl 15 0 empty empty empty 17 7 0 10 -262144 -1 -1 1 1
;
#X obj 70 67 select 0;
#X obj 70 16 loadbang;
#X obj 463 167 select 0;
#X msg 513 190 \; lcd 1 Zero Stomp Loaded \; lcd 2 \; lcd 3 \; lcd
4 \;;
#X obj 462 134 r connect;
#X connect 0 0 1 0;
#X connect 1 0 2 0;
#X connect 3 0 1 0;
#X connect 4 0 5 0;
#X connect 5 0 0 0;
#X connect 5 1 3 0;
#X connect 6 0 4 0;
#X connect 7 1 8 0;
#X connect 9 0 7 0;
